if (_typeface_js && _typeface_js.loadFace) _typeface_js.loadFace({"glyphs":{"S":{"x_min":83,"x_max":644,"ha":727,"o":"m 363 604 q 562 517 480 604 q 644 309 644 431 l 644 16 q 562 -191 644 -105 q 363 -278 480 -278 q 164 -191 246 -278 q 83 16 83 -105 l 83 122 l 270 122 l 270 16 q 297 -59 270 -28 q 363 -90 324 -90 q 429 -59 402 -90 q 456 16 456 -28 l 456 309 q 429 385 456 354 q 363 416 402 416 q 164 502 246 416 q 83 710 83 588 l 83 816 q 164 1024 83 938 q 363 1111 246 1111 q 562 1024 480 1111 q 644 816 644 938 l 644 711 l 456 711 l 456 816 q 429 892 456 861 q 363 923 402 923 q 297 892 324 923 q 270 816 270 860 l 270 710 q 297 635 270 666 q 363 604 324 604 "},"/":{"x_min":83.328125,"x_max":713.890625,"ha":797,"o":"m 713 1085 l 280 -251 l 83 -251 l 516 1085 l 713 1085 "},"K":{"x_min":83,"x_max":644,"ha":727,"o":"m 644 897 l 644 229 q 556 17 644 104 l 644 -251 l 446 -251 l 387 -63 l 363 -63 l 270 -63 l 270 -251 l 83 -251 l 83 229 l 83 790 l 83 1085 l 270 1085 l 270 1030 l 270 123 l 363 123 q 429 154 402 123 q 456 229 456 186 l 456 897 l 644 897 "},"7":{"x_min":83,"x_max":713.5625,"ha":797,"o":"m 456 897 l 83 897 l 83 1084 l 713 1084 l 280 -251 l 83 -251 l 456 897 "},",":{"x_min":83,"x_max":363.5,"ha":447,"o":"m 363 -112 q 281 -320 363 -234 q 83 -407 199 -407 l 83 -313 q 146 -240 117 -313 q 176 -112 176 -166 l 176 -63 l 363 -63 l 363 -112 "},"Ô":{"x_min":83,"x_max":644.109375,"ha":727,"o":"m 83 443 q 164 651 83 565 q 363 737 246 737 q 562 651 480 737 q 644 443 644 565 l 644 16 q 562 -191 644 -105 q 363 -278 480 -278 q 164 -191 246 -278 q 83 16 83 -105 l 83 443 m 270 443 l 270 16 q 297 -59 270 -27 q 363 -90 324 -90 q 429 -59 402 -90 q 456 16 456 -27 l 456 443 q 429 518 456 487 q 363 550 402 550 q 297 518 324 550 q 270 443 270 487 m 363 1072 l 644 955 l 644 783 l 363 898 l 83 783 l 83 955 l 363 1072 "},"Y":{"x_min":83.765625,"x_max":714.328125,"ha":798,"o":"m 714 1085 l 497 417 l 492 401 l 492 -251 l 306 -251 l 306 401 l 300 417 l 83 1085 l 281 1085 l 399 719 l 517 1085 l 714 1085 "},"E":{"x_min":83,"x_max":551.0625,"ha":634,"o":"m 551 -63 l 551 -251 l 270 -251 l 83 -251 l 83 -63 l 83 897 l 83 1085 l 270 1085 l 458 1085 l 458 897 l 270 897 l 270 711 l 551 711 l 551 524 l 270 524 l 270 -63 l 551 -63 "},"\"":{"x_min":83,"x_max":630,"ha":694,"o":"m 83 816 q 165 1024 83 938 q 364 1111 247 1111 l 364 1018 q 298 944 327 1018 q 269 816 269 870 l 269 768 l 83 768 l 83 816 m 349 816 q 431 1024 349 938 q 630 1111 513 1111 l 630 1018 q 566 944 595 1018 q 537 816 537 870 l 537 768 l 349 768 l 349 816 "},"Á":{"x_min":83,"x_max":644,"ha":727,"o":"m 551 937 l 176 783 l 176 955 l 551 1111 l 551 937 m 456 121 l 456 442 q 429 517 456 486 q 363 549 402 549 q 297 517 324 549 q 270 442 270 486 l 270 121 l 456 121 m 83 442 q 164 650 83 564 q 363 736 246 736 q 562 650 480 736 q 644 442 644 564 l 644 -252 l 456 -252 l 456 -65 l 270 -65 l 270 -252 l 83 -252 l 83 442 "},"Â":{"x_min":83,"x_max":644.109375,"ha":727,"o":"m 83 443 q 164 651 83 565 q 363 737 246 737 q 562 651 480 737 q 644 443 644 565 l 644 -251 l 456 -251 l 456 -64 l 270 -64 l 270 -251 l 83 -251 l 83 443 m 456 122 l 456 443 q 429 518 456 487 q 363 550 402 550 q 297 518 324 550 q 270 443 270 487 l 270 122 l 456 122 m 363 1073 l 644 956 l 644 784 l 363 900 l 83 784 l 83 956 l 363 1073 "},"–":{"x_min":83,"x_max":784.390625,"ha":876,"o":"m 784 711 l 784 524 l 83 524 l 83 711 l 784 711 "},"Î":{"x_min":83,"x_max":644.109375,"ha":727,"o":"m 363 1072 l 644 955 l 644 783 q 546 814 616 785 q 420 870 476 842 l 363 898 l 83 783 l 83 955 q 228 1012 89 953 q 363 1072 366 1072 m 270 -253 l 270 709 l 458 709 l 458 -253 l 270 -253 "},"Í":{"x_min":83,"x_max":456.609375,"ha":526,"o":"m 83 -253 l 83 709 l 269 709 l 269 -253 l 83 -253 m 456 937 l 83 783 l 83 955 l 456 1110 l 456 937 "},"Ã":{"x_min":83,"x_max":644,"ha":727,"o":"m 456 122 l 456 443 q 429 518 456 487 q 363 550 402 550 q 297 518 324 550 q 270 443 270 487 l 270 122 l 456 122 m 83 443 q 164 651 83 565 q 363 737 246 737 q 562 651 480 737 q 644 443 644 565 l 644 -251 l 456 -251 l 456 -64 l 270 -64 l 270 -251 l 83 -251 l 83 443 m 143 1114 q 303 1077 235 1114 q 370 1030 333 1061 q 434 976 407 999 q 500 935 460 952 q 584 924 541 919 l 584 762 q 513 766 546 762 q 457 777 479 771 q 404 803 435 784 q 360 832 373 822 q 312 872 348 841 q 263 913 276 902 q 143 951 209 956 l 143 1114 "},"J":{"x_min":82.890625,"x_max":456.5,"ha":526,"o":"m 175 -90 l 181 -90 q 175 -90 181 -90 m 456 1084 l 456 16 q 374 -191 456 -105 q 175 -278 292 -278 q 82 -261 127 -278 l 82 -89 l 175 -89 q 181 -89 178 -89 q 244 -57 219 -89 q 269 16 269 -26 l 269 1084 l 456 1084 "},"»":{"x_min":83.328125,"x_max":652.78125,"ha":722,"o":"m 255 136 l 83 136 l 198 416 l 83 697 l 255 697 l 372 416 l 255 136 m 536 136 l 362 136 l 479 416 l 363 697 l 536 697 l 652 416 l 536 136 "},"Ú":{"x_min":0,"x_max":561,"ha":644,"o":"m 468 937 l 93 783 l 93 955 l 468 1110 l 468 937 m 0 726 l 187 726 l 187 16 q 214 -59 187 -28 q 280 -90 241 -90 q 346 -59 319 -90 q 373 16 373 -28 l 373 726 l 561 726 l 561 16 q 479 -191 561 -105 q 280 -278 397 -278 q 81 -191 163 -278 q 0 16 0 -105 l 0 726 "},"|":{"x_min":83,"x_max":270.5,"ha":359,"o":"m 83 1085 l 270 1085 l 270 -251 l 83 -251 l 83 1085 "},"§":{"x_min":83,"x_max":644,"ha":727,"o":"m 297 492 q 270 416 270 460 q 297 340 270 372 q 363 309 324 309 q 429 340 402 309 q 456 416 456 372 q 429 492 456 460 q 363 523 402 523 q 297 492 324 523 m 83 816 q 164 1024 83 938 q 363 1111 246 1111 q 562 1024 480 1111 q 644 816 644 938 l 456 816 q 429 892 456 861 q 363 923 402 923 q 297 892 324 923 q 270 817 270 861 q 297 742 270 773 q 363 711 324 711 q 562 624 480 711 q 644 416 644 538 q 569 216 644 301 q 644 16 644 131 q 562 -191 644 -105 q 363 -278 480 -278 q 164 -191 246 -278 q 83 16 83 -105 l 270 16 q 297 -59 270 -28 q 363 -90 324 -90 q 429 -59 402 -90 q 456 15 456 -28 q 429 90 456 59 q 363 122 402 122 q 164 208 246 122 q 83 416 83 294 q 158 616 83 531 q 83 816 83 701 "},"«":{"x_min":83.328125,"x_max":652.78125,"ha":722,"o":"m 362 416 l 479 697 l 652 697 l 536 416 l 652 136 l 479 136 l 362 416 m 83 416 l 198 697 l 372 697 l 255 416 l 372 136 l 198 136 l 83 416 "},"D":{"x_min":83,"x_max":644,"ha":727,"o":"m 270 897 l 270 -63 l 363 -63 q 429 -32 402 -63 q 456 43 456 -1 l 456 790 q 429 866 456 834 q 363 897 402 897 l 270 897 m 373 1085 q 363 1085 368 1085 l 373 1085 m 371 1082 q 564 996 485 1082 q 644 791 644 911 l 644 43 q 562 -164 644 -78 q 363 -251 480 -251 l 357 -251 l 83 -251 l 83 1082 l 363 1082 l 371 1082 "},"$":{"x_min":0,"x_max":0,"ha":728},"\\":{"x_min":83.328125,"x_max":713.890625,"ha":797,"o":"m 280 1085 l 713 -251 l 516 -251 l 83 1085 l 280 1085 "},"Ì":{"x_min":0,"x_max":373.609375,"ha":456,"o":"m 184 -253 l 184 709 l 372 709 l 372 -253 l 184 -253 m 0 1110 l 373 955 l 373 783 l 0 937 l 0 1110 "},"Ç":{"x_min":83,"x_max":644,"ha":727,"o":"m 216 -278 l 216 -90 q 292 -63 260 -90 q 323 2 323 -36 q 292 68 323 41 q 216 95 260 95 l 216 166 q 119 272 155 205 q 83 416 83 338 l 83 816 q 164 1024 83 938 q 363 1111 246 1111 q 562 1024 480 1111 q 644 816 644 938 l 644 711 l 456 711 l 456 816 q 429 892 456 861 q 363 923 402 923 q 297 892 324 923 q 270 816 270 860 l 270 416 q 297 340 270 372 q 363 309 324 309 q 429 340 402 309 q 456 416 456 371 l 456 523 l 644 523 l 644 416 q 596 251 644 326 q 470 144 548 177 q 511 2 511 79 q 424 -196 511 -114 q 216 -278 338 -278 "},"’":{"x_min":83,"x_max":363.5,"ha":415,"o":"m 363 1062 q 281 854 363 940 q 83 768 199 768 l 83 861 q 146 934 117 861 q 176 1062 176 1008 l 176 1111 l 363 1111 l 363 1062 "},"É":{"x_min":83,"x_max":551.0625,"ha":634,"o":"m 551 -65 l 551 -253 l 83 -253 l 83 -65 l 83 709 l 458 709 l 458 522 l 270 522 l 270 334 l 551 334 l 551 148 l 270 148 l 270 -65 l 551 -65 m 504 937 l 130 783 l 130 955 l 504 1110 l 504 937 "},"-":{"x_min":83,"x_max":644.109375,"ha":726,"o":"m 644 711 l 644 524 l 83 524 l 83 711 l 644 711 m 363 616 l 363 616 "},"Q":{"x_min":83,"x_max":787,"ha":870,"o":"m 638 -40 q 708 -98 674 -77 q 787 -118 742 -118 l 787 -278 q 660 -255 712 -278 q 563 -190 609 -233 q 363 -278 481 -278 q 164 -191 246 -278 q 83 16 83 -105 l 83 816 q 164 1024 83 938 q 363 1111 246 1111 q 562 1024 480 1111 q 644 816 644 938 l 644 16 q 638 -40 644 -12 m 353 123 l 363 123 q 456 109 414 123 l 456 816 q 429 892 456 861 q 363 923 402 923 q 297 892 324 923 q 270 816 270 861 l 270 16 q 297 -59 270 -28 q 363 -90 324 -90 q 431 -56 403 -90 q 363 -36 402 -36 q 353 -36 359 -36 l 353 123 "},"M":{"x_min":83,"x_max":830,"ha":899,"o":"m 830 -251 l 642 -251 l 642 536 l 456 278 l 269 536 l 269 -251 l 83 -251 l 83 1111 l 456 596 l 830 1111 l 830 -251 "},"C":{"x_min":83,"x_max":644,"ha":727,"o":"m 83 816 q 164 1024 83 938 q 363 1111 246 1111 q 562 1024 480 1111 q 644 816 644 938 l 644 711 l 456 711 l 456 816 q 429 892 456 861 q 363 923 402 923 q 297 892 324 923 q 270 816 270 861 l 270 16 q 297 -59 270 -28 q 363 -90 324 -90 q 429 -59 402 -90 q 456 16 456 -28 l 456 122 l 644 122 l 644 16 q 562 -191 644 -105 q 363 -278 480 -278 q 164 -191 246 -278 q 83 16 83 -105 l 83 816 "},"[":{"x_min":83,"x_max":410.78125,"ha":494,"o":"m 410 1085 l 410 897 l 270 897 l 270 -63 l 410 -63 l 410 -251 l 83 -251 l 83 1085 l 410 1085 "},"L":{"x_min":83,"x_max":551.0625,"ha":597,"o":"m 83 1085 l 270 1085 l 270 -63 l 551 -63 l 551 -251 l 83 -251 l 83 1085 "},"!":{"x_min":83,"x_max":270.5,"ha":354,"o":"m 110 -223 q 83 -157 83 -195 q 110 -91 83 -119 q 177 -63 138 -63 q 243 -91 216 -63 q 270 -157 270 -119 q 243 -223 270 -195 q 177 -251 216 -251 q 110 -223 138 -251 m 270 1085 l 270 121 l 83 121 l 83 1085 l 270 1085 "},"È":{"x_min":83,"x_max":551.0625,"ha":634,"o":"m 551 -65 l 551 -253 l 83 -253 l 83 -65 l 83 709 l 458 709 l 458 522 l 270 522 l 270 334 l 551 334 l 551 148 l 270 148 l 270 -65 l 551 -65 m 83 1111 q 271 1033 84 1111 q 458 955 458 956 l 458 783 l 83 937 l 83 1111 "}," ":{"x_min":0,"x_max":0,"ha":346},"X":{"x_min":83.328125,"x_max":713.890625,"ha":797,"o":"m 713 1085 l 497 417 l 713 -251 l 516 -251 l 398 114 l 280 -251 l 83 -251 l 300 417 l 83 1085 l 280 1085 l 398 719 l 516 1085 l 713 1085 "},"P":{"x_min":83,"x_max":644,"ha":727,"o":"m 270 897 l 270 122 l 363 122 q 429 154 402 122 q 456 229 456 185 l 456 790 q 429 865 456 834 q 363 897 402 897 l 270 897 m 373 1081 q 564 996 485 1081 q 644 791 644 910 l 644 229 q 562 22 644 108 q 363 -64 480 -64 l 270 -64 l 270 -251 l 83 -251 l 83 227 l 83 787 l 83 1081 l 363 1081 l 373 1081 "},"%":{"x_min":97,"x_max":1205.28125,"ha":1319,"o":"m 966 1084 l 533 -251 l 336 -251 l 770 1084 l 966 1084 m 258 947 q 237 890 237 923 q 258 833 237 856 q 307 811 279 811 q 356 833 336 811 q 377 890 377 856 q 356 947 377 923 q 307 970 336 970 q 258 947 279 970 m 158 734 q 97 890 97 799 q 158 1046 97 981 q 307 1111 220 1111 q 456 1046 394 1111 q 518 890 518 981 q 456 735 518 799 q 307 670 394 670 q 158 734 220 670 m 945 -1 q 925 -58 925 -25 q 945 -114 925 -91 q 995 -137 966 -137 q 1044 -114 1023 -137 q 1065 -58 1065 -91 q 1044 -1 1065 -25 q 995 22 1023 22 q 945 -1 966 22 m 845 -214 q 784 -57 784 -148 q 846 97 784 33 q 995 162 908 162 q 1143 97 1081 162 q 1205 -57 1205 33 q 1143 -213 1205 -148 q 995 -278 1081 -278 q 845 -214 908 -278 "},"#":{"x_min":83,"x_max":830.234375,"ha":900,"o":"m 549 30 l 549 217 l 362 217 l 362 30 l 549 30 m 549 497 l 737 497 l 737 403 l 830 403 l 830 217 l 737 217 l 737 30 l 830 30 l 830 -156 l 737 -156 l 737 -251 l 549 -251 l 549 -156 l 362 -156 l 362 -251 l 176 -251 l 176 -156 l 83 -156 l 83 30 l 176 30 l 176 217 l 83 217 l 83 403 l 176 403 l 176 497 l 362 497 l 362 403 l 549 403 l 549 497 "},"À":{"x_min":83,"x_max":644,"ha":727,"o":"m 176 937 l 176 1111 l 551 955 l 551 783 l 176 937 m 456 121 l 456 442 q 429 517 456 486 q 363 549 402 549 q 297 517 324 549 q 270 442 270 486 l 270 121 l 456 121 m 83 442 q 164 650 83 564 q 363 736 246 736 q 562 650 480 736 q 644 442 644 564 l 644 -252 l 456 -252 l 456 -65 l 270 -65 l 270 -252 l 83 -252 l 83 442 "},"_":{"x_min":83,"x_max":830.234375,"ha":900,"o":"m 830 -63 l 830 -251 l 83 -251 l 83 -63 l 830 -63 m 456 -156 l 456 -156 "},"+":{"x_min":83,"x_max":830.234375,"ha":900,"o":"m 830 709 l 830 523 l 549 523 l 549 229 l 362 229 l 362 523 l 83 523 l 83 709 l 362 709 l 362 1004 l 549 1004 l 549 709 l 830 709 "},"Ê":{"x_min":83,"x_max":644.109375,"ha":727,"o":"m 363 1072 l 644 955 l 644 783 l 363 898 l 83 783 l 83 955 l 363 1072 m 599 -65 l 599 -253 l 131 -253 l 131 -65 l 131 709 l 505 709 l 505 522 l 319 522 l 319 334 l 599 334 l 599 148 l 319 148 l 319 -65 l 599 -65 "},"Æ":{"x_min":83,"x_max":925,"ha":1008,"o":"m 456 123 l 456 433 l 456 817 q 429 892 456 861 q 363 924 402 924 q 297 892 324 924 q 270 817 270 861 l 270 433 l 270 123 l 456 123 m 83 817 q 164 1025 83 939 q 363 1111 246 1111 q 480 1085 424 1111 l 644 1085 l 831 1085 l 831 897 l 644 897 l 644 817 l 644 711 l 924 711 l 924 524 l 644 524 l 644 -63 l 925 -63 l 925 -251 l 644 -251 l 456 -251 l 456 -63 l 270 -63 l 270 -251 l 83 -251 l 83 817 "},")":{"x_min":82.9375,"x_max":363.5,"ha":447,"o":"m 363 16 q 281 -191 363 -105 q 82 -278 199 -278 l 82 -90 q 148 -59 121 -90 q 176 16 176 -28 l 176 816 q 148 892 176 861 q 82 923 121 923 l 82 1111 q 281 1024 199 1111 q 363 816 363 938 l 363 16 "},"'":{"x_min":83,"x_max":364,"ha":447,"o":"m 83 816 q 165 1024 83 938 q 364 1111 247 1111 l 364 1018 q 299 944 329 1018 q 270 816 270 870 l 270 768 l 83 768 l 83 816 "},"ª":{"x_min":83,"x_max":644,"ha":727,"o":"m 456 497 l 456 817 q 429 892 456 861 q 363 924 402 924 q 297 892 324 924 q 270 817 270 861 l 270 497 l 456 497 m 83 817 q 164 1025 83 939 q 363 1111 246 1111 q 562 1025 480 1111 q 644 817 644 939 l 644 122 l 456 122 l 456 310 l 270 310 l 270 122 l 83 122 l 83 817 m 363 -251 q 270 -157 270 -251 q 363 -63 270 -63 q 457 -157 457 -63 q 363 -251 457 -251 "},"T":{"x_min":83,"x_max":551.0625,"ha":634,"o":"m 551 1084 l 551 897 l 411 897 l 411 -251 l 223 -251 l 223 897 l 83 897 l 83 1084 l 551 1084 "},"—":{"x_min":83,"x_max":924.671875,"ha":1019,"o":"m 924 711 l 924 524 l 83 524 l 83 711 l 924 711 "},"=":{"x_min":83,"x_max":830.234375,"ha":900,"o":"m 830 697 l 830 509 l 83 509 l 83 697 l 830 697 m 830 323 l 830 136 l 83 136 l 83 323 l 830 323 "},"N":{"x_min":83,"x_max":644,"ha":727,"o":"m 83 1111 l 456 596 l 456 1085 l 644 1085 l 644 -251 l 456 -251 l 456 278 l 270 536 l 270 -251 l 83 -251 l 83 1111 "},"2":{"x_min":83,"x_max":644.109375,"ha":727,"o":"m 363 604 q 429 635 402 604 q 456 711 456 667 l 456 817 q 429 892 456 861 q 363 924 402 924 q 297 892 324 924 q 270 817 270 861 l 83 817 q 164 1025 83 939 q 363 1111 246 1111 q 562 1025 480 1111 q 644 817 644 939 l 644 711 q 562 503 644 589 q 363 417 480 417 q 297 385 324 417 q 270 310 270 354 l 270 -63 l 644 -63 l 644 -251 l 83 -251 l 83 310 q 164 518 83 432 q 363 604 246 604 "},"Z":{"x_min":83.546875,"x_max":777,"ha":860,"o":"m 457 897 l 178 897 l 178 1085 l 714 1085 l 342 -63 l 777 -63 l 777 -251 l 83 -251 l 457 897 "},"1":{"x_min":82.9375,"x_max":363.5,"ha":447,"o":"m 176 807 q 82 790 131 790 l 82 978 q 148 1009 121 978 q 176 1085 176 1040 l 363 1085 l 363 -251 l 176 -251 l 176 807 "},"Ó":{"x_min":83,"x_max":644,"ha":727,"o":"m 83 443 q 164 651 83 565 q 363 737 246 737 q 562 651 480 737 q 644 443 644 565 l 644 16 q 562 -191 644 -105 q 363 -278 480 -278 q 164 -191 246 -278 q 83 16 83 -105 l 83 443 m 270 443 l 270 16 q 297 -59 270 -27 q 363 -90 324 -90 q 429 -59 402 -90 q 456 16 456 -27 l 456 443 q 429 518 456 487 q 363 550 402 550 q 297 518 324 550 q 270 443 270 487 m 551 937 l 176 783 l 176 955 l 551 1111 l 551 937 "},"Ù":{"x_min":0,"x_max":561,"ha":644,"o":"m 93 1110 l 468 955 l 468 783 l 93 937 l 93 1110 m 0 726 l 187 726 l 187 16 q 214 -59 187 -28 q 280 -90 241 -90 q 346 -59 319 -90 q 373 16 373 -28 l 373 726 l 561 726 l 561 16 q 479 -191 561 -105 q 280 -278 397 -278 q 81 -191 163 -278 q 0 16 0 -105 l 0 726 "},"€":{"x_min":0,"x_max":654,"ha":728,"o":"m 0 629 l 94 629 l 94 820 q 115 932 94 879 q 174 1025 137 986 q 262 1088 212 1065 q 369 1111 312 1111 q 481 1088 428 1111 q 572 1025 533 1065 q 632 932 610 986 q 654 820 654 879 l 462 820 q 435 892 462 862 q 369 922 409 922 q 308 892 333 922 q 283 819 283 862 l 283 629 l 558 629 l 558 440 l 283 440 l 283 394 l 558 394 l 558 203 l 283 203 l 283 14 q 289 -27 283 -6 q 308 -64 296 -48 q 335 -90 319 -80 q 369 -99 351 -99 q 406 -90 390 -99 q 435 -64 423 -80 q 455 -27 448 -48 q 462 14 462 -6 l 654 14 q 632 -99 654 -45 q 572 -192 610 -152 q 481 -255 533 -231 q 369 -279 428 -279 q 262 -255 312 -279 q 174 -192 212 -231 q 115 -99 137 -152 q 94 14 94 -45 l 94 203 l 0 203 l 0 394 l 94 394 l 94 440 l 0 440 l 0 629 "},"<":{"x_min":83.4375,"x_max":639,"ha":722,"o":"m 639 -83 l 83 416 l 639 916 l 639 665 l 362 416 l 639 168 l 639 -83 "},"W":{"x_min":83.328125,"x_max":909.71875,"ha":979,"o":"m 272 1084 l 391 331 l 388 319 l 393 319 l 495 521 l 600 319 l 720 1084 l 909 1084 l 743 35 l 694 -278 l 550 5 l 495 109 l 443 5 l 298 -278 l 248 35 l 83 1084 l 272 1084 "},">":{"x_min":83,"x_max":638.5625,"ha":708,"o":"m 83 168 l 359 416 l 83 665 l 83 916 l 638 416 l 83 -83 l 83 168 "},"B":{"x_min":83,"x_max":644,"ha":727,"o":"m 270 897 l 270 711 l 363 711 q 377 711 370 711 q 433 743 410 717 q 456 804 456 769 q 429 870 456 843 q 363 897 402 897 l 270 897 m 270 524 l 270 -63 l 363 -63 q 429 -32 402 -63 q 456 43 456 -1 l 456 417 q 429 492 456 461 q 363 524 402 524 l 270 524 m 83 1085 l 363 1085 l 371 1085 q 380 1080 376 1085 q 566 999 489 1080 q 644 805 644 917 q 570 615 644 694 q 644 417 644 530 l 644 43 q 562 -164 644 -78 q 363 -251 480 -251 l 357 -251 l 83 -251 l 83 1085 "},"…":{"x_min":83,"x_max":978.5,"ha":1062,"o":"m 176 -251 q 83 -157 83 -251 q 176 -63 83 -63 q 270 -157 270 -63 q 176 -251 270 -251 m 530 -251 q 437 -157 437 -251 q 530 -63 437 -63 q 624 -157 624 -63 q 530 -251 624 -251 m 884 -251 q 791 -157 791 -251 q 884 -63 791 -63 q 978 -157 978 -63 q 884 -251 978 -251 "},"Ò":{"x_min":83,"x_max":644,"ha":727,"o":"m 83 443 q 164 651 83 565 q 363 737 246 737 q 562 651 480 737 q 644 443 644 565 l 644 16 q 562 -191 644 -105 q 363 -278 480 -278 q 164 -191 246 -278 q 83 16 83 -105 l 83 443 m 270 443 l 270 16 q 297 -59 270 -27 q 363 -90 324 -90 q 429 -59 402 -90 q 456 16 456 -27 l 456 443 q 429 518 456 487 q 363 550 402 550 q 297 518 324 550 q 270 443 270 487 m 176 1111 l 551 955 l 551 783 l 176 937 l 176 1111 "},"?":{"x_min":83,"x_max":644,"ha":727,"o":"m 399 611 q 440 651 424 624 q 456 711 456 678 l 456 817 q 429 892 456 861 q 363 924 402 924 q 297 892 324 924 q 270 817 270 861 l 270 711 l 83 711 l 83 817 q 164 1025 83 939 q 363 1111 246 1111 q 562 1025 480 1111 q 644 817 644 939 l 644 711 q 594 543 644 618 q 463 436 544 468 l 462 435 q 419 396 435 424 q 404 336 404 369 l 404 121 l 216 121 l 216 336 q 267 505 216 429 q 399 611 317 580 m 244 -223 q 216 -157 216 -195 q 244 -91 216 -119 q 310 -63 272 -63 q 376 -91 348 -63 q 404 -157 404 -119 q 376 -223 404 -195 q 310 -251 348 -251 q 244 -223 272 -251 "},"H":{"x_min":83,"x_max":644,"ha":727,"o":"m 456 1085 l 644 1085 l 644 -251 l 456 -251 l 456 524 l 270 524 l 270 -251 l 83 -251 l 83 1085 l 270 1085 l 270 711 l 456 711 l 456 1085 "},"&":{"x_min":83,"x_max":737.171875,"ha":807,"o":"m 269 416 l 269 16 q 296 -59 269 -27 q 363 -90 324 -90 q 429 -59 402 -90 q 456 16 456 -27 l 456 323 l 456 416 q 429 492 456 460 q 363 523 402 523 q 296 492 324 523 q 269 416 269 460 m 296 892 q 269 817 269 861 q 296 742 269 773 q 363 711 324 711 q 429 742 402 711 q 456 817 456 773 q 429 892 456 861 q 363 923 402 923 q 296 892 324 923 m 83 816 q 164 1024 83 938 q 362 1111 246 1111 q 561 1024 478 1111 q 644 816 644 938 q 567 616 644 701 q 598 577 584 598 q 737 616 662 616 l 737 430 q 671 398 698 430 q 644 323 644 367 l 644 16 q 671 -59 644 -28 q 737 -90 698 -90 l 737 -278 q 549 -203 630 -278 q 363 -278 470 -278 q 164 -191 246 -278 q 83 16 83 -105 l 83 416 q 158 616 83 531 q 83 816 83 700 "},"I":{"x_min":83,"x_max":270.5,"ha":354,"o":"m 83 1085 l 270 1085 l 270 -251 l 83 -251 l 83 1085 m 177 416 l 177 416 "},"G":{"x_min":83,"x_max":734,"ha":817,"o":"m 362 337 l 371 337 q 476 318 430 337 q 555 269 523 299 q 613 209 587 239 q 670 149 639 178 q 734 107 702 120 l 734 -59 q 641 -29 682 -51 q 546 -206 625 -134 q 363 -278 467 -278 q 164 -191 246 -278 q 83 16 83 -105 l 83 816 q 164 1024 83 938 q 363 1111 246 1111 q 562 1024 480 1111 q 644 816 644 938 l 644 711 l 456 711 l 456 816 q 429 892 456 861 q 363 923 402 923 q 297 892 324 923 q 270 816 270 861 l 270 16 q 297 -59 270 -28 q 363 -90 324 -90 q 429 -59 402 -90 q 456 16 456 -28 l 456 143 q 371 177 418 177 q 362 177 367 177 l 362 337 "},"(":{"x_min":83,"x_max":363.5625,"ha":447,"o":"m 83 816 q 164 1024 83 938 q 363 1111 246 1111 l 363 923 q 297 892 324 923 q 270 816 270 861 l 270 16 q 297 -59 270 -28 q 363 -90 324 -90 l 363 -278 q 164 -191 246 -278 q 83 16 83 -105 l 83 816 "},"U":{"x_min":83,"x_max":644,"ha":727,"o":"m 83 1084 l 270 1084 l 270 16 q 297 -59 270 -28 q 363 -90 324 -90 q 429 -59 402 -90 q 456 16 456 -28 l 456 1084 l 644 1084 l 644 16 q 562 -191 644 -105 q 363 -278 480 -278 q 164 -191 246 -278 q 83 16 83 -105 l 83 1084 "},"F":{"x_min":83,"x_max":551.0625,"ha":634,"o":"m 551 711 l 551 524 l 270 524 l 270 -251 l 83 -251 l 83 1085 l 270 1085 l 458 1085 l 458 897 l 270 897 l 270 711 l 551 711 "},":":{"x_min":83,"x_max":270.5,"ha":354,"o":"m 176 -251 q 83 -157 83 -251 q 176 -63 83 -63 q 270 -157 270 -63 q 176 -251 270 -251 m 176 229 q 83 323 83 229 q 176 417 83 417 q 270 323 270 417 q 176 229 270 229 "},"Û":{"x_min":0,"x_max":561.109375,"ha":644,"o":"m 280 1072 l 561 955 l 561 783 l 280 898 l 0 783 l 0 955 l 280 1072 m 0 726 l 187 726 l 187 16 q 214 -59 187 -28 q 280 -90 241 -90 q 346 -59 319 -90 q 373 16 373 -28 l 373 726 l 561 726 l 561 16 q 479 -191 561 -105 q 280 -278 397 -278 q 81 -191 163 -278 q 0 16 0 -105 l 0 726 "},"*":{"x_min":83,"x_max":830.234375,"ha":900,"o":"m 830 217 l 830 29 l 714 29 q 737 -84 737 -24 l 737 -138 l 549 -138 l 549 -251 l 362 -251 l 362 -138 l 176 -138 l 176 -84 q 198 29 176 -24 l 83 29 l 83 217 l 192 217 q 176 315 176 264 l 176 370 l 362 370 l 362 497 l 549 497 l 549 370 l 737 370 l 737 315 q 720 217 737 264 l 830 217 "},"º":{"x_min":83,"x_max":644,"ha":727,"o":"m 270 817 l 270 390 q 297 314 270 346 q 363 283 324 283 q 429 314 402 283 q 456 390 456 346 l 456 817 q 429 892 456 861 q 363 924 402 924 q 297 892 324 924 q 270 817 270 861 m 83 817 q 164 1025 83 939 q 363 1111 246 1111 q 562 1025 480 1111 q 644 817 644 939 l 644 390 q 562 182 644 268 q 363 96 480 96 q 164 182 246 96 q 83 390 83 268 l 83 817 m 363 -251 q 270 -157 270 -251 q 363 -63 270 -63 q 457 -157 457 -63 q 363 -251 457 -251 m 363 -156 l 363 -156 "},"°":{"x_min":83,"x_max":504,"ha":587,"o":"m 244 947 q 223 890 223 923 q 244 834 223 857 q 293 811 265 811 q 342 834 322 811 q 363 890 363 857 q 342 947 363 923 q 293 971 322 971 q 244 947 265 971 m 144 735 q 83 891 83 800 q 144 1046 83 982 q 293 1111 206 1111 q 442 1046 380 1111 q 504 891 504 982 q 442 735 504 800 q 293 671 380 671 q 144 735 206 671 "},"V":{"x_min":83.328125,"x_max":813.890625,"ha":897,"o":"m 813 1085 l 448 -277 l 83 1085 l 277 1085 l 448 444 l 620 1085 l 813 1085 "},"÷":{"x_min":83,"x_max":830.234375,"ha":900,"o":"m 389 283 q 362 350 362 311 q 389 416 362 388 q 456 444 417 444 q 522 416 495 444 q 549 350 549 388 q 522 284 549 311 q 456 257 495 257 q 389 283 417 257 m 830 711 l 830 523 l 83 523 l 83 711 l 830 711 m 389 819 q 362 885 362 847 q 389 951 362 924 q 456 979 417 979 q 522 951 495 979 q 549 885 549 924 q 522 819 549 847 q 456 791 495 791 q 389 819 417 791 "},"0":{"x_min":83,"x_max":644,"ha":727,"o":"m 270 101 l 270 16 q 297 -59 270 -28 q 363 -90 324 -90 q 429 -59 402 -90 q 456 16 456 -28 l 456 388 l 270 101 m 270 816 l 270 444 l 456 731 l 456 816 q 429 892 456 860 q 363 923 402 923 q 297 892 324 923 q 270 816 270 861 m 83 816 q 164 1024 83 938 q 363 1111 246 1111 q 562 1024 480 1111 q 644 816 644 938 l 644 16 q 562 -191 644 -105 q 363 -278 480 -278 q 164 -191 246 -278 q 83 16 83 -105 l 83 816 "},".":{"x_min":83,"x_max":270.5,"ha":354,"o":"m 176 -251 q 83 -157 83 -251 q 176 -63 83 -63 q 270 -157 270 -63 q 176 -251 270 -251 "},"”":{"x_min":83,"x_max":630.125,"ha":695,"o":"m 630 1062 q 548 854 630 940 q 350 768 466 768 l 350 861 q 414 934 385 861 q 444 1062 444 1008 l 444 1111 l 630 1111 l 630 1062 m 363 1062 q 281 854 363 940 q 83 768 199 768 l 83 861 q 146 934 117 861 q 176 1062 176 1008 l 176 1111 l 363 1111 l 363 1062 "},"@":{"x_min":83,"x_max":1205,"ha":1288,"o":"m 737 382 l 737 502 q 709 577 737 545 q 644 609 682 609 q 578 577 605 609 q 551 502 551 545 l 551 382 q 578 306 551 337 q 644 275 605 275 q 709 306 682 275 q 737 382 737 337 m 83 548 q 157 829 83 700 q 362 1033 232 958 q 644 1108 491 1108 q 657 1108 650 1108 q 933 1032 807 1108 q 1132 828 1059 956 q 1205 550 1205 700 l 1205 419 l 1205 322 q 1136 157 1205 226 q 971 88 1067 88 q 814 148 881 88 q 643 88 739 88 q 446 174 528 88 q 363 382 363 259 l 363 502 q 446 709 363 623 q 643 796 528 796 q 805 742 732 796 l 924 742 l 924 502 l 924 472 l 924 388 l 924 334 l 924 328 q 939 299 925 312 q 971 287 953 287 q 1002 299 989 287 q 1017 328 1016 312 l 1017 334 l 1017 471 l 1017 549 q 908 814 1017 705 q 644 923 799 923 q 380 814 489 923 q 270 549 270 704 l 270 282 q 378 18 270 127 q 641 -90 487 -90 l 644 -90 l 698 -90 l 1018 -90 l 1018 -278 l 698 -278 l 644 -278 q 362 -203 491 -278 q 158 0 233 -128 q 83 281 83 129 l 83 548 "},";":{"x_min":83,"x_max":363.5,"ha":447,"o":"m 269 229 q 176 322 176 229 q 269 415 176 415 q 363 322 363 415 q 269 229 363 229 m 363 -112 q 281 -320 363 -234 q 83 -407 199 -407 l 83 -313 q 146 -240 117 -313 q 176 -112 176 -166 l 176 -63 l 363 -63 l 363 -112 "},"“":{"x_min":83,"x_max":630,"ha":697,"o":"m 83 816 q 165 1024 83 938 q 364 1111 247 1111 l 364 1018 q 298 944 327 1018 q 269 816 269 870 l 269 768 l 83 768 l 83 816 m 349 816 q 431 1024 349 938 q 630 1111 513 1111 l 630 1018 q 566 944 595 1018 q 537 816 537 870 l 537 768 l 349 768 l 349 816 "},"6":{"x_min":83,"x_max":644,"ha":727,"o":"m 270 416 l 270 354 l 270 16 q 297 -59 270 -27 q 363 -90 324 -90 q 429 -59 402 -90 q 456 16 456 -27 l 456 416 q 429 492 456 460 q 363 523 402 523 q 297 492 324 523 q 270 416 270 460 m 270 694 q 363 711 314 711 q 562 624 480 711 q 644 416 644 538 l 644 16 q 562 -191 644 -105 q 363 -278 480 -278 q 164 -191 246 -278 q 83 16 83 -105 l 83 354 l 83 416 l 83 816 q 164 1024 83 938 q 363 1111 246 1111 l 363 923 q 297 892 324 923 q 270 816 270 861 l 270 694 "},"A":{"x_min":83,"x_max":644,"ha":726,"o":"m 456 122 l 456 433 l 456 816 q 429 892 456 861 q 363 923 402 923 q 297 892 324 923 q 270 816 270 861 l 270 433 l 270 122 l 456 122 m 83 816 q 164 1024 83 938 q 363 1111 246 1111 q 562 1024 480 1111 q 644 816 644 938 l 644 -251 l 456 -251 l 456 -64 l 270 -64 l 270 -251 l 83 -251 l 83 816 "},"‘":{"x_min":83,"x_max":364,"ha":418,"o":"m 83 816 q 165 1024 83 938 q 364 1111 247 1111 l 364 1018 q 298 944 327 1018 q 269 816 269 870 l 269 768 l 83 768 l 83 816 "},"O":{"x_min":83,"x_max":644,"ha":727,"o":"m 83 816 q 164 1024 83 938 q 363 1111 246 1111 q 562 1024 480 1111 q 644 816 644 938 l 644 16 q 562 -191 644 -105 q 363 -278 480 -278 q 164 -191 246 -278 q 83 16 83 -105 l 83 816 m 363 416 l 363 416 m 270 816 l 270 16 q 297 -59 270 -28 q 363 -90 324 -90 q 429 -59 402 -90 q 456 16 456 -28 l 456 816 q 429 892 456 861 q 363 923 402 923 q 297 892 324 923 q 270 816 270 861 m 363 416 l 363 416 "},"Õ":{"x_min":83,"x_max":644,"ha":727,"o":"m 143 1114 q 303 1077 235 1114 q 370 1030 333 1061 q 434 976 407 1000 q 500 936 460 953 q 584 925 541 919 l 584 763 q 513 767 546 763 q 457 778 479 772 q 404 804 435 784 q 360 833 373 823 q 312 872 348 842 q 263 914 276 903 q 143 951 209 957 l 143 1114 m 270 445 l 270 18 q 297 -57 270 -25 q 363 -88 324 -88 q 429 -57 402 -88 q 456 18 456 -25 l 456 445 q 429 520 456 489 q 363 552 402 552 q 297 520 324 552 q 270 445 270 489 m 83 444 q 164 653 83 567 q 363 739 246 739 q 562 653 480 739 q 644 444 644 567 l 644 18 q 562 -189 644 -103 q 363 -276 480 -276 q 164 -189 246 -276 q 83 18 83 -103 l 83 444 "},"3":{"x_min":83.390625,"x_max":644.5,"ha":728,"o":"m 270 1085 l 363 1085 l 372 1085 q 380 1080 376 1085 q 567 999 490 1080 q 644 805 644 917 q 570 615 644 694 q 644 417 644 530 l 644 43 q 562 -164 644 -78 q 363 -251 480 -251 l 358 -251 l 83 -251 l 83 -63 l 270 -63 l 363 -63 q 429 -32 402 -63 q 457 43 457 -1 l 457 417 q 429 492 457 461 q 363 524 402 524 l 83 524 l 83 711 l 363 711 q 377 711 370 711 q 434 743 411 717 q 457 804 457 769 q 429 870 457 843 q 363 897 402 897 l 270 897 l 270 1085 "},"]":{"x_min":83.71875,"x_max":411.5,"ha":495,"o":"m 411 1085 l 411 -251 l 83 -251 l 83 -63 l 224 -63 l 224 897 l 83 897 l 83 1085 l 411 1085 "},"9":{"x_min":83,"x_max":644,"ha":727,"o":"m 456 816 q 433 888 456 858 q 373 923 409 919 q 363 923 369 923 q 297 892 324 923 q 270 817 270 860 q 297 742 270 773 q 363 711 324 711 q 429 742 402 711 q 456 816 456 773 m 373 1108 q 565 1022 487 1108 q 644 817 644 937 l 644 16 q 562 -191 644 -105 q 363 -278 480 -278 l 363 -90 q 429 -59 402 -90 q 456 16 456 -27 l 456 540 q 363 523 412 523 q 165 609 247 523 q 83 815 83 694 q 164 1022 83 936 q 363 1108 246 1108 q 373 1108 369 1108 "},"8":{"x_min":83,"x_max":644,"ha":727,"o":"m 297 892 q 270 817 270 861 q 297 742 270 773 q 363 711 324 711 q 429 742 402 711 q 456 817 456 773 q 429 892 456 861 q 363 923 402 923 q 297 892 324 923 m 270 416 l 270 16 q 297 -59 270 -27 q 363 -90 324 -90 q 429 -59 402 -90 q 456 16 456 -27 l 456 416 q 429 492 456 460 q 363 523 402 523 q 297 492 324 523 q 270 416 270 460 m 83 416 q 158 616 83 531 q 83 816 83 701 q 164 1024 83 938 q 363 1111 246 1111 q 562 1024 480 1111 q 644 816 644 938 q 569 616 644 701 q 644 416 644 531 l 644 16 q 562 -191 644 -105 q 363 -278 480 -278 q 164 -191 246 -278 q 83 16 83 -105 l 83 416 "},"4":{"x_min":83,"x_max":644,"ha":727,"o":"m 644 -251 l 456 -251 l 456 524 l 83 524 l 83 897 l 270 897 l 270 711 l 456 711 l 456 1085 l 644 1085 l 644 -251 "},"R":{"x_min":83,"x_max":644,"ha":727,"o":"m 270 897 l 270 122 l 363 122 q 429 154 402 122 q 456 229 456 185 l 456 790 q 429 865 456 834 q 363 897 402 897 l 270 897 m 373 1081 q 564 996 485 1081 q 644 791 644 910 l 644 229 q 556 16 644 104 l 644 -251 l 446 -251 l 387 -62 q 364 -64 376 -64 l 270 -64 l 270 -251 l 83 -251 l 83 787 l 83 1081 l 363 1081 l 373 1081 "},"×":{"x_min":83.328125,"x_max":763.890625,"ha":847,"o":"m 622 852 l 754 719 l 555 522 l 763 313 l 631 181 l 423 390 l 225 191 l 93 323 l 291 522 l 83 730 l 216 862 l 423 654 l 622 852 "},"5":{"x_min":83,"x_max":644,"ha":727,"o":"m 363 -251 l 244 -251 l 244 -63 l 363 -63 q 429 -32 402 -63 q 456 43 456 -1 l 456 417 q 429 492 456 461 q 363 524 402 524 l 83 524 l 83 1085 l 456 1085 l 456 897 l 270 897 l 270 711 l 385 711 q 569 617 495 701 q 644 417 644 532 l 644 43 q 562 -164 644 -78 q 363 -251 480 -251 "}}}
